# AST/ASF file generated using VICON BodyLanguage
# -----------------------------------------------
:version 1.10
:name VICON
:units
  mass 1.0
  length 0.45
  angle deg
:documentation
   .ast/.asf automatically generated from VICON data using
   VICON BodyBuilder and BodyLanguage model FoxedUp or BRILLIANT.MOD
:root
   order TX TY TZ RX RY RZ
   axis XYZ
   position 0 0 0  
   orientation 0 0 0 
:bonedata
  begin
     id 1 
     name lhipjoint
     direction 0.561145 -0.797705 0.220866 
     length 2.46425 
     axis 0 0 0  XYZ
  end
  begin
     id 2 
     name lfemur
     direction 0.34202 -0.939693 0  
     length 7.95556  
     axis 0 0 20  XYZ
    dof rx ry rz
    limits (-160.0 20.0)
           (-70.0 70.0)
           (-60.0 70.0)
  end
  begin
     id 3 
     name ltibia
     direction 0.34202 -0.939693 0   
     length 7.9832   
     axis 0 0 20   XYZ
    dof rx
    limits (-10.0 170.0)
  end
  begin
     id 4 
     name lfoot
     direction 0.0723927 -0.198897 0.977343   
     length 2.23085   
     axis -90 7.62852e-016 20   XYZ
    dof rx rz
    limits (-45.0 90.0)
           (-70.0 20.0)
  end
  begin
     id 5 
     name ltoes
     direction 1.53826e-011 -4.21988e-011 1   
     length 1.12127   
     axis -90 7.62852e-016 20   XYZ
    dof rx
    limits (-90.0 20.0)
  end
  begin
     id 6 
     name rhipjoint
     direction -0.610499 -0.763299 0.21134   
     length 2.57533  
     axis 0 0 0  XYZ 
  end
  begin
     id 7 
     name rfemur
     direction -0.34202 -0.939693 0   
     length 8.65257   
     axis 0 0 -20   XYZ
    dof rx ry rz
    limits (-160.0 20.0)
           (-70.0 70.0)
           (-70.0 60.0)
  end
  begin
     id 8 
     name rtibia
     direction -0.342021 -0.939692 0   
     length 7.37807   
     axis 0 0 -20   XYZ
    dof rx
    limits (-10.0 170.0)
 end
 begin
     id 9 
     name rfoot
     direction -0.0239304 -0.0543852 0.998233   
     length 1.87018  
     axis -90 -7.62852e-016 -20   XYZ
    dof rx rz
    limits (-45.0 90.0)
           (-20.0 70.0)
  end
  begin
     id 10 
     name rtoes
     direction -1.53584e-011 -4.2242e-011 1   
     length 0.951568   
     axis -90 -7.62852e-016 -20   XYZ
    dof rx
    limits (-90.0 20.0)
  end
  begin
     id 11 
     name lowerback
     direction 0.00322089 0.999033 0.0438587   
     length 2.07568   
     axis 0 0 0   XYZ
    dof rx ry rz
    limits (-20.0 45.0)
           (-30.0 30.0)
           (-30.0 30.0)
  end
  begin
     id 12 
     name upperback
     direction -0.00321932 0.999732 -0.0229403   
     length 2.06253   
     axis 0 0 0   XYZ
    dof rx ry rz
    limits (-20.0 45.0)
           (-30.0 30.0)
           (-30.0 30.0)
  end
  begin
     id 13 
     name thorax
     direction -0.00537537 0.998955 -0.0453918   
     length 2.06975   
     axis 0 0 0   XYZ
    dof rx ry rz
    limits (-20.0 45.0)
           (-30.0 30.0)
           (-30.0 30.0)
  end
  begin
     id 14 
     name lowerneck
     direction -0.00013604 0.994111 0.108363   
     length 1.50836   
     axis 0 0 0   XYZ
    dof rx ry rz
    limits (-20.0 45.0)
           (-30.0 30.0)
           (-30.0 30.0)
  end
  begin
     id 15 
     name upperneck
     direction 0.0397262 0.983859 -0.174482   
     length 1.53037   
     axis 0 0 0   XYZ
    dof rx ry rz
    limits (-20.0 45.0)
           (-30.0 30.0)
           (-30.0 30.0)
  end
  begin
     id 16
     name head
     direction 0.0109991 0.997082 -0.0755378  
     length 1.56928  
     axis 0 0 0   XYZ
    dof rx ry rz
    limits (-20.0 45.0)
           (-30.0 30.0)
           (-30.0 30.0)
  end
  begin
     id 17 
     name lclavicle
     direction 0.964749 0.254 -0.068874  
     length 3.26503  
     axis 0 0 0   XYZ
    dof ry rz
    limits (-20.0 10.0)
           (0.0 20.0)
  end
  begin
     id 18 
     name lhumerus
     direction 1 -4.48941e-011 -2.05079e-027   
     length 5.68236   
     axis 180 -30 -90   XYZ
    dof rx ry rz
    limits (-60.0 90.0)
           (-90.0 90.0)
           (-90.0 90.0)
  end
  begin
     id 19
     name lradius
     direction 1 -4.48956e-011 6.2882e-027   
     length 3.17112   
     axis 180 -30 -90   XYZ
    dof rx
    limits (-10.0 170.0)
  end
  begin
     id 20
     name lwrist
     direction 1 -4.49014e-011 1.73219e-026   
     length 1.58556   
     axis -1.04724e-014 90 90   XYZ
    dof ry
    limits (-180.0 0.0)
 end
  begin
     id 21 
     name lhand
     direction 1 -4.49312e-011 3.46438e-026   
     length 0.632691   
     axis -2.21057e-014 90 90   XYZ
    dof rx rz
    limits (-90.0 90.0)
           (-45.0 45.0)
  end
  begin
     id 22 
     name lfingers
     direction 1 -4.48894e-011 6.92876e-026   
     length 0.510091   
     axis -4.42114e-014 90 90   XYZ
    dof rx
    limits (0.0 90.0)
  end
  begin
     id 23
     name lthumb
     direction 0.707107 -6.34705e-011 0.707107   
     length 0.732392   
     axis -90 45 2.85299e-015   XYZ
    dof rx rz
    limits (-45.0 45.0)
           (-45.0 45.0)
  end
  begin
     id 24 
     name rclavicle
     direction -0.954374 0.280496 -0.102435   
     length 3.25419  
     axis 0 0 0   XYZ 
    dof ry rz
    limits (-10.0 20.0)
           (-20.0 0.0)
  end
  begin
     id 25 
     name rhumerus
     direction -1 -4.48994e-011 -1.07204e-017  
     length 5.8712   
     axis 180 30 90   XYZ
    dof rx ry rz
    limits (-90.0 60.0)
           (-90.0 90.0)
           (-90.0 90.0)
  end
  begin
     id 26 
     name rradius
     direction -1 -4.48972e-011 5.89292e-027   
     length 3.37589   
     axis 180 30 90   XYZ
    dof rx
    limits (-10.0 170.0)
  end
  begin
     id 27 
     name rwrist
     direction -1 -4.48942e-011 1.73219e-026   
     length 1.68794   
     axis -1.04724e-014 -90 -90   XYZ
    dof ry
    limits (-180.0 0.0)
  end
  begin
     id 28
     name rhand
     direction -1 -4.48514e-011 3.46438e-026   
     length 0.603257   
     axis -2.21057e-014 -90 -90   XYZ
    dof rx rz
    limits (-90.0 90.0)
           (-45.0 45.0)
  end
  begin
     id 29
     name rfingers
     direction -1 -4.50028e-011 6.92876e-026   
     length 0.486362   
     axis -4.42114e-014 -90 -90   XYZ
    dof rx
    limits (0.0 90.0)
  end
  begin
     id 30
     name rthumb
     direction -0.707107 -6.34926e-011 0.707107   
     length 0.698321   
     axis -90 -45 -2.85299e-015   XYZ
    dof rx rz
    limits (-45.0 45.0)
           (-45.0 45.0)
  end
:hierarchy
  begin
    root lhipjoint rhipjoint lowerback
    lhipjoint lfemur
    lfemur ltibia
    ltibia lfoot
    lfoot ltoes
    rhipjoint rfemur
    rfemur rtibia
    rtibia rfoot
    rfoot rtoes
    lowerback upperback
    upperback thorax
    thorax lowerneck lclavicle rclavicle
    lowerneck upperneck
    upperneck head
    lclavicle lhumerus
    lhumerus lradius
    lradius lwrist
    lwrist lhand lthumb
    lhand lfingers
    rclavicle rhumerus
    rhumerus rradius
    rradius rwrist
    rwrist rhand rthumb
    rhand rfingers
  end

#!OML:ASF I:\Segmentation\Patient Classification 1\Patient 1\Session 1\Patient1.ASF
:FULLY-SPECIFIED
:DEGREES
3292
root 28.3948 17.6829 -5.0393 21.9301 -445.541 -1453.9
lowerback -12.8582 0.837491 -4.49429
upperback 0.22485 1.71753 0.720949
thorax 7.31424 0.646928 3.63062
lowerneck -18.5122 -1.92421 -3.13365
upperneck 17.233 -1.80186 -0.0537797
head 8.44663 -1.08318 0.266113
rclavicle 3.11843e-015 -1.03368e-014
rhumerus -32.5777 -6.50199 -73.5477
rradius 45.2308
rwrist 8.67207
rhand -13.2219 29.8356
rfingers 7.12502
rthumb 12.8792 0.252945
lclavicle 3.11843e-015 -1.03368e-014
lhumerus -38.9323 2.78255 72.9562
lradius 39.4691
lwrist 15.9381
lhand -15.8357 32.3951
lfingers 7.12502
lthumb 10.3587 62.1199
rfemur -27.8836 -4.51539 20.0757
rtibia 70.2083
rfoot 7.63241 5.59955
rtoes -2.51307
lfemur -35.163 0.25338 -22.9589
ltibia 45.9806
lfoot -15.9328 -1.37673
ltoes -10.6731
3293
root 28.3603 17.6899 -5.0166 21.3169 -445.754 -1453.45
lowerback -12.7417 0.857856 -4.60163
upperback 0.242363 1.76707 0.571339
thorax 7.26428 0.671394 3.53751
lowerneck -18.5147 -1.88299 -2.9074
upperneck 17.2296 -1.81298 -0.027558
head 8.44351 -1.07021 0.236699
rclavicle -1.07344e-014 -8.54774e-015
rhumerus -32.5538 -6.75424 -73.516
rradius 44.9817
rwrist 8.67169
rhand -13.3335 29.9074
rfingers 7.12502
rthumb 12.7717 0.318027
lclavicle -1.07344e-014 -8.54774e-015
lhumerus -38.74 2.29151 72.9953
lradius 40.0498
lwrist 16.7622
lhand -16.1492 33.1911
lfingers 7.12502
lthumb 10.0562 62.9309
rfemur -29.6122 -4.70475 19.6836
rtibia 73.3572
rfoot 8.78189 4.76585
rtoes -2.1315
lfemur -34.7966 0.55239 -23.1683
ltibia 45.9174
lfoot -16.0206 -1.51254
ltoes -10.3231
3294
root 28.3272 17.6943 -4.99233 21.9255 -445.89 -1454.22
lowerback -12.6079 0.853019 -4.6378
upperback 0.297542 1.76572 0.519937
thorax 7.24869 0.670462 3.49986
lowerneck -18.6542 -1.84701 -2.82894
upperneck 17.2245 -1.79271 0.0386961
head 8.46558 -1.04743 0.24778
rclavicle 4.90874e-014 -1.59028e-015
rhumerus -32.4136 -7.17182 -73.3424
rradius 44.5917
rwrist 8.97429
rhand -13.4351 30.038
rfingers 7.12502
rthumb 12.6737 0.442503
lclavicle 4.90874e-014 -1.59028e-015
lhumerus -38.4589 1.96551 73.0767
lradius 40.6008
lwrist 17.0331
lhand -16.4587 33.0606
lfingers 7.12502
lthumb 9.75761 62.8146
rfemur -31.4283 -5.00571 19.4285
rtibia 76.5991
rfoot 9.76339 4.14777
rtoes -2.65137
lfemur -34.4362 0.785576 -23.2531
ltibia 45.8491
lfoot -16.1096 -1.56511
ltoes -10.6826
3295
root 28.2956 17.7012 -4.96946 24.5448 -445.982 -1457.01
lowerback -12.4954 0.82669 -4.57575
upperback 0.385671 1.71597 0.573599
thorax 7.28429 0.645731 3.5113
lowerneck -18.8622 -1.81229 -2.98809
upperneck 17.26 -1.72434 0.195759
head 8.51618 -1.00836 0.333816
rclavicle 3.50855e-014 5.96354e-015
rhumerus -32.2402 -7.34369 -73.1288
rradius 44.4295
rwrist 9.09622
rhand -13.2741 30.0245
rfingers 7.12502
rthumb 12.829 0.438762
lclavicle 3.50855e-014 5.96354e-015
lhumerus -38.2341 1.8444 73.1464
lradius 41.2919
lwrist 16.7958
lhand -16.3886 32.4096
lfingers 7.12502
lthumb 9.82525 62.1603
rfemur -33.3323 -5.32265 19.3471
rtibia 79.8921
rfoot 10.5861 3.88011
rtoes -3.96839
lfemur -34.0744 0.873903 -23.1298
ltibia 45.7614
lfoot -16.2333 -1.50519
ltoes -10.7025
3296
root 28.2658 17.7122 -4.94883 27.2159 -446.085 -1459.83
lowerback -12.4009 0.80314 -4.53692
upperback 0.417289 1.67231 0.621502
thorax 7.26836 0.625308 3.53028
lowerneck -18.7325 -1.77063 -3.15211
upperneck 17.1052 -1.657 0.348572
head 8.44269 -0.969861 0.422237
rclavicle 1.95927e-014 1.19271e-015
rhumerus -32.2155 -7.26196 -72.959
rradius 44.4146
rwrist 9.0715
rhand -13.2374 30.0658
rfingers 7.12502
rthumb 12.8644 0.482293
lclavicle 1.95927e-014 1.19271e-015
lhumerus -38.0883 1.63425 73.2019
lradius 41.9619
lwrist 16.7844
lhand -16.3877 32.2922
lfingers 7.12502
lthumb 9.8261 62.0429
rfemur -35.3139 -5.60958 19.2727
rtibia 83.2054
rfoot 11.234 3.81021
rtoes -5.70119
lfemur -33.7065 0.876363 -22.9907
ltibia 45.6209
lfoot -16.3559 -1.46728
ltoes -10.0306
3297
root 28.2399 17.7231 -4.9282 28.0402 -446.125 -1460.7
lowerback -12.3158 0.792478 -4.52143
upperback 0.384379 1.6559 0.547928
thorax 7.18884 0.622125 3.43696
lowerneck -18.6226 -1.74174 -3.06181
upperneck 16.9717 -1.65668 0.401699
head 8.37757 -0.956832 0.426637
rclavicle -2.34939e-014 -7.55382e-015
rhumerus -32.3932 -7.38998 -72.8676
rradius 44.4596
rwrist 9.1968
rhand -13.5392 30.213
rfingers 7.12502
rthumb 12.5734 0.611381
lclavicle -2.34939e-014 -7.55382e-015
lhumerus -37.816 1.16795 73.1789
lradius 42.463
lwrist 16.9521
lhand -16.4063 32.4055
lfingers 7.12502
lthumb 9.80815 62.157
rfemur -37.464 -6.02903 19.112
rtibia 86.5272
rfoot 11.9876 3.74938
rtoes -6.64123
lfemur -33.4306 0.896318 -23.0152
ltibia 45.3999
lfoot -16.3979 -1.38464
ltoes -10.4964
3298
root 28.2151 17.7383 -4.90616 28.7248 -446.083 -1461.38
lowerback -12.2712 0.745635 -4.42195
upperback 0.38106 1.58336 0.457601
thorax 7.17162 0.59271 3.27029
lowerneck -18.8186 -1.68421 -2.92572
upperneck 17.019 -1.61481 0.436844
head 8.42593 -0.923739 0.420214
rclavicle -1.26477e-014 7.95139e-016
rhumerus -32.3745 -7.57894 -72.8295
rradius 44.3695
rwrist 9.23898
rhand -13.937 30.1188
rfingers 7.12502
rthumb 12.1898 0.494018
lclavicle -1.26477e-014 7.95139e-016
lhumerus -37.4985 0.757826 73.106
lradius 43.0253
lwrist 17.1246
lhand -16.5334 32.5618
lfingers 7.12502
lthumb 9.68555 62.3191
rfemur -39.6955 -6.57424 18.9805
rtibia 89.8237
rfoot 12.8716 3.76762
rtoes -6.61219
lfemur -33.18 0.854259 -23.026
ltibia 45.1125
lfoot -16.3819 -1.23446
ltoes -11.4571
3299
root 28.1889 17.7612 -4.88377 30.9288 -446.084 -1463.74
lowerback -12.1527 0.659697 -4.33992
upperback 0.45387 1.44959 0.528841
thorax 7.19424 0.528027 3.27404
lowerneck -18.8816 -1.58539 -3.06538
upperneck 16.9362 -1.45398 0.522481
head 8.40799 -0.846726 0.492132
rclavicle -4.07509e-015 -7.15625e-015
rhumerus -32.2213 -7.43872 -72.646
rradius 44.2868
rwrist 9.09317
rhand -13.9987 30.0135
rfingers 7.12502
rthumb 12.1304 0.385169
lclavicle -4.07509e-015 -7.15625e-015
lhumerus -37.2478 0.65514 73.1708
lradius 43.6434
lwrist 17.2413
lhand -16.8487 32.8545
lfingers 7.12502
lthumb 9.38133 62.6258
rfemur -41.7616 -7.04534 18.9287
rtibia 93.0454
rfoot 13.8255 3.79667
rtoes -6.24346
lfemur -32.7187 0.811377 -22.9052
ltibia 44.7872
lfoot -16.3703 -1.15921
ltoes -11.1149
3300
root 28.1657 17.7876 -4.86109 34.1357 -446.093 -1467.18
lowerback -11.9566 0.655835 -4.20503
upperback 0.532734 1.415 0.59242
thorax 7.17185 0.515151 3.25546
lowerneck -18.7885 -1.56141 -3.14087
upperneck 16.7638 -1.40935 0.558385
head 8.33343 -0.825188 0.523029
rclavicle -3.97569e-015 1.51076e-014
rhumerus -32.2471 -7.48683 -72.4129
rradius 44.3289
rwrist 9.01983
rhand -13.8346 30.0475
rfingers 7.12502
rthumb 12.2886 0.428576
lclavicle -3.97569e-015 1.51076e-014
lhumerus -36.9192 0.332779 73.284
lradius 44.1942
lwrist 17.2784
lhand -16.9066 32.9287
lfingers 7.12502
lthumb 9.32547 62.7024
rfemur -43.8124 -7.45377 18.9451
rtibia 96.2154
rfoot 14.9954 3.75842
rtoes -5.31054
lfemur -32.1796 0.808551 -22.7185
ltibia 44.4491
lfoot -16.3738 -1.00635
ltoes -10.9872
3301
root 28.1452 17.8134 -4.83928 36.7357 -446.04 -1470.02
lowerback -11.707 0.707581 -4.00322
upperback 0.580879 1.44951 0.55381
thorax 7.08419 0.542563 3.1005
lowerneck -18.7397 -1.57616 -3.00145
upperneck 16.691 -1.46723 0.547408
head 8.30001 -0.843863 0.489746
rclavicle 1.04362e-015 7.95139e-015
rhumerus -32.364 -7.82041 -72.2662
rradius 44.3472
rwrist 9.00254
rhand -13.6933 30.1313
rfingers 7.12502
rthumb 12.4248 0.520612
lclavicle 1.04362e-015 7.95139e-015
lhumerus -36.4949 -0.289761 73.3118
lradius 44.6569
lwrist 17.3369
lhand -16.7847 32.7762
lfingers 7.12502
lthumb 9.44313 62.5446
rfemur -45.9409 -7.98362 19.0041
rtibia 99.3642
rfoot 16.2182 3.74466
rtoes -4.79908
lfemur -31.6421 0.732405 -22.5377
ltibia 44.0912
lfoot -16.409 -0.808856
ltoes -11.481
